<?xml version="1.0" encoding="utf-8"?>
<!-- Generator: Adobe Illustrator 25.0.1, SVG Export Plug-In . SVG Version: 6.00 Build 0)  -->
<svg version="1.1" id="Lager_1" xmlns="http://www.w3.org/2000/svg" xmlns:xlink="http://www.w3.org/1999/xlink" x="0px" y="0px"
	 viewBox="0 0 800 545" style="enable-background:new 0 0 800 545;" xml:space="preserve">
<style type="text/css">
	.st0{fill:#404040;}
	.st1{fill:#FFFFFF;stroke:#404040;stroke-width:4;stroke-linecap:round;stroke-linejoin:round;stroke-miterlimit:10;}
	.st2{fill:none;stroke:#404040;stroke-width:4;stroke-miterlimit:10;}
	.st3{fill:#B3E3FF;stroke:#404040;stroke-width:4;stroke-linejoin:round;stroke-miterlimit:10;}
	.st4{fill:#FFFFFF;stroke:#404040;stroke-width:4;stroke-miterlimit:10;}
	.st5{fill:#4ED1A1;stroke:#404040;stroke-width:4;stroke-miterlimit:10;}
	.st6{fill:none;stroke:#404040;stroke-width:4;stroke-linecap:round;stroke-linejoin:round;stroke-miterlimit:10;}
	.st7{fill:#4ED1A1;stroke:#404040;stroke-width:4;stroke-linecap:round;stroke-linejoin:round;stroke-miterlimit:10;}
	.st8{fill:#999999;}
</style>
<path class="st0" d="M350.8,522c2,0,3.2,1.2,3.2,2.9c0,1.1-0.7,2-1.6,2.3c1.2,0.3,1.9,1.4,1.9,2.6c0,1.7-1.3,2.9-3.3,2.9h-3.7V522
	H350.8z M350.6,526.7c1.2,0,1.9-0.7,1.9-1.7s-0.7-1.7-1.9-1.7h-1.8v3.4H350.6z M350.8,531.4c1.2,0,2-0.7,2-1.7s-0.6-1.7-1.9-1.7
	h-2.1v3.4H350.8z M360.9,526.9h-0.6c-1.2,0-2,0.6-2,2.2v3.6h-1.4v-7.2h1.4v1.3c0.5-1.1,1.4-1.4,2.2-1.4h0.5v1.5L360.9,526.9z
	 M364.9,528.5l1.9-0.3c0.4-0.1,0.6-0.3,0.6-0.5c0-0.7-0.5-1.3-1.6-1.3c-1,0-1.5,0.6-1.6,1.5l-1.4-0.3c0.2-1.4,1.4-2.3,3-2.3
	c2.2,0,3,1.2,3,2.6v3.6c0,0.6,0.1,1,0.1,1.2h-1.4c0-0.2-0.1-0.5-0.1-1c-0.3,0.5-1,1.2-2.3,1.2c-1.5,0-2.4-1-2.4-2.2
	C362.7,529.4,363.6,528.7,364.9,528.5L364.9,528.5z M367.4,529.6v-0.3l-2.2,0.3c-0.6,0.1-1.1,0.4-1.1,1.1c0,0.5,0.4,1,1.2,1
	C366.5,531.7,367.4,531.1,367.4,529.6z M373.1,532.7h-1.4v-7.2h1.4v1c0.5-0.9,1.4-1.2,2.2-1.2c1.7,0,2.6,1.2,2.6,2.9v4.6h-1.4v-4.3
	c0-1-0.4-1.8-1.7-1.8c-1.1,0-1.7,0.9-1.7,2V532.7z M386,531.6c-0.3,0.7-1.1,1.3-2.2,1.3c-2.1,0-3.4-1.7-3.4-3.8c0-2,1.4-3.8,3.4-3.8
	c1.3,0,2,0.6,2.2,1.2v-4.7h1.4v9.5c0,0.7,0.1,1.2,0.1,1.3H386c0-0.2-0.1-0.5-0.1-1H386z M383.9,531.6c1.3,0,2.1-1.1,2.1-2.6
	s-0.8-2.5-2.1-2.5s-2.1,1-2.1,2.5S382.5,531.6,383.9,531.6z M402.4,532.7l-5.7-8.7v8.7h-1.5V522h2l5.3,8.2V522h1.5v10.6h-1.6
	L402.4,532.7z M413.5,530.6c-0.4,1.3-1.6,2.3-3.2,2.3c-1.9,0-3.6-1.4-3.6-3.9c0-2.3,1.6-3.8,3.4-3.8c2.2,0,3.5,1.5,3.5,3.8v0.4h-5.4
	c0,1.3,1,2.2,2.2,2.2s1.8-0.6,2-1.5L413.5,530.6z M412,528.3c0-1-0.7-1.8-2-1.8c-1.2,0-1.9,0.9-2,1.8H412z M421.5,525.4l1.9,5.4
	l1.6-5.4h1.5l-2.3,7.2h-1.5l-1.9-5.5l-1.9,5.5h-1.5l-2.4-7.2h1.5l1.6,5.4l1.9-5.4H421.5L421.5,525.4z M432.6,527.3
	c0-3.6,2.6-5.5,5.3-5.5c2.4,0,4.1,1.3,4.7,3.4l-1.4,0.5c-0.4-1.6-1.6-2.5-3.3-2.5c-1.9,0-3.8,1.4-3.8,4.2s1.8,4.2,3.8,4.2
	c1.8,0,3-1.1,3.4-2.5l1.3,0.5c-0.6,2-2.2,3.4-4.7,3.4C435.1,532.9,432.6,530.9,432.6,527.3L432.6,527.3z M451.6,529
	c0,2.2-1.5,3.8-3.7,3.8s-3.7-1.6-3.7-3.8s1.5-3.8,3.7-3.8S451.6,526.9,451.6,529z M450.2,529c0-1.7-1.1-2.6-2.2-2.6
	s-2.2,0.9-2.2,2.6c0,1.7,1,2.6,2.2,2.6S450.2,530.7,450.2,529z M454.2,532.7v-7.2h1.3v1c0.4-0.8,1.4-1.2,2.2-1.2
	c0.9,0,1.8,0.4,2.2,1.4c0.6-1,1.5-1.4,2.4-1.4c1.3,0,2.5,0.9,2.5,2.7v4.7h-1.4v-4.5c0-0.9-0.5-1.6-1.5-1.6s-1.7,0.8-1.7,1.8v4.4
	h-1.4v-4.5c0-0.9-0.4-1.6-1.5-1.6c-1,0-1.7,0.8-1.7,1.8v4.3h-1.4V532.7z M467.8,532.7v-7.2h1.3v1c0.4-0.8,1.4-1.2,2.2-1.2
	c0.9,0,1.8,0.4,2.2,1.4c0.6-1,1.5-1.4,2.4-1.4c1.3,0,2.5,0.9,2.5,2.7v4.7H477v-4.5c0-0.9-0.5-1.6-1.5-1.6s-1.7,0.8-1.7,1.8v4.4h-1.4
	v-4.5c0-0.9-0.4-1.6-1.5-1.6c-1,0-1.7,0.8-1.7,1.8v4.3h-1.4V532.7z M482.1,521.7c0.6,0,1,0.4,1,1s-0.4,1-1,1s-1-0.5-1-1
	C481.1,522.1,481.5,521.7,482.1,521.7z M481.4,532.7v-7.2h1.4v7.2H481.4z M487.8,525.4h1.6v1.3h-1.6v3.8c0,0.7,0.3,1,1,1
	c0.2,0,0.4,0,0.6-0.1v1.2c-0.1,0-0.5,0.1-1,0.1c-1.2,0-2-0.8-2-2.1v-4H485v-1.3h0.4c0.8,0,1.1-0.5,1.1-1.1V523h1.3V525.4
	L487.8,525.4z"/>
<path class="st1" d="M315.4,527.2h13 M317.3,522.6l9.2,9.2 M326.5,522.6l-9.2,9.2 M321.9,520.7v13"/>
<path class="st2" d="M429.1,270.4c0-22.6,18.4-41,41-41 M429.1,270.4c0,22.6-18.4,41-41,41H76.9"/>
<circle class="st3" cx="344.7" cy="311.4" r="21"/>
<circle class="st3" cx="248.5" cy="311.4" r="21"/>
<circle class="st4" cx="152.2" cy="311.4" r="21"/>
<circle class="st4" cx="55.9" cy="311.4" r="21"/>
<path class="st2" d="M694.1,229.4h-224"/>
<circle class="st5" cx="619.1" cy="229.4" r="21"/>
<circle class="st5" cx="523.1" cy="229.4" r="21"/>
<circle class="st5" cx="715.1" cy="229.4" r="21"/>
<path class="st1" d="M529.6,229.4h-13 M527.7,234l-9.2-9.2 M518.5,234l9.2-9.2 M523.1,235.9v-13 M625.6,229.4h-13 M623.7,234
	l-9.2-9.2 M614.5,234l9.2-9.2 M619.1,235.9v-13 M721.6,229.4h-13 M719.7,234l-9.2-9.2 M710.5,234l9.2-9.2 M715.1,235.9v-13"/>
<path class="st3" d="M294.7,408.1h100v50h-100V408.1z"/>
<path class="st6" d="M344.7,361.6v23.5 M333.9,370.3l10.8-10.9l10.9,10.9"/>
<path class="st7" d="M665.1,88.7h100v50h-100V88.7z"/>
<path class="st0" d="M688.3,119.7v-10.6h6.5v1.4h-5v3.4h4.5v1.4h-4.5v4.5h-1.5V119.7z M702.9,117.6c-0.4,1.3-1.6,2.3-3.2,2.3
	c-1.9,0-3.6-1.4-3.6-3.9c0-2.3,1.6-3.8,3.4-3.8c2.2,0,3.5,1.5,3.5,3.8v0.4h-5.4c0,1.3,1,2.2,2.2,2.2s1.8-0.6,2-1.5L702.9,117.6z
	 M701.5,115.3c0-1-0.7-1.8-2-1.8c-1.2,0-1.9,0.9-2,1.8H701.5z M707.3,115.6l1.9-0.3c0.4-0.1,0.6-0.3,0.6-0.5c0-0.7-0.5-1.3-1.6-1.3
	c-1,0-1.5,0.6-1.6,1.5l-1.4-0.3c0.2-1.4,1.4-2.3,3-2.3c2.2,0,3,1.2,3,2.6v3.6c0,0.6,0.1,1,0.1,1.2h-1.4c0-0.2-0.1-0.5-0.1-1
	c-0.3,0.5-1,1.2-2.3,1.2c-1.5,0-2.4-1-2.4-2.2C705.1,116.5,706,115.7,707.3,115.6L707.3,115.6z M709.8,116.6v-0.3l-2.2,0.3
	c-0.6,0.1-1.1,0.4-1.1,1.1c0,0.5,0.4,1,1.2,1C708.8,118.7,709.8,118.2,709.8,116.6z M716,112.5h1.6v1.3H716v3.8c0,0.7,0.3,1,1,1
	c0.2,0,0.4,0,0.6-0.1v1.2c-0.1,0-0.5,0.1-1,0.1c-1.2,0-2-0.8-2-2.1v-4h-1.4v-1.3h0.4c0.8,0,1.1-0.5,1.1-1.1v-1.2h1.3L716,112.5
	L716,112.5z M722.8,119.9c-1.7,0-2.7-1.3-2.7-2.9v-4.5h1.4v4.3c0,1,0.4,1.9,1.6,1.9c1.1,0,1.7-0.8,1.7-1.8v-4.4h1.4v5.9
	c0,0.6,0,1.1,0.1,1.3H725c0-0.2-0.1-0.6-0.1-0.9C724.5,119.6,723.6,119.9,722.8,119.9L722.8,119.9z M733.4,113.9h-0.6
	c-1.2,0-2,0.6-2,2.2v3.6h-1.4v-7.2h1.4v1.3c0.5-1.1,1.4-1.4,2.2-1.4h0.5v1.5H733.4z M741.9,117.6c-0.4,1.3-1.6,2.3-3.2,2.3
	c-1.9,0-3.6-1.4-3.6-3.9c0-2.3,1.6-3.8,3.4-3.8c2.2,0,3.5,1.5,3.5,3.8v0.4h-5.4c0,1.3,1,2.2,2.2,2.2s1.8-0.6,2-1.5L741.9,117.6z
	 M740.5,115.3c0-1-0.7-1.8-2-1.8c-1.2,0-1.9,0.9-2,1.8H740.5z"/>
<path class="st6" d="M715.1,184.5V161 M726,175.8l-10.9,10.9l-10.9-10.9"/>
<g>
	<path d="M331,439.2v-10h2l2.4,7.1c0.2,0.7,0.4,1.2,0.5,1.5c0.1-0.4,0.3-0.9,0.5-1.6l2.4-7h1.8v10h-1.3v-8.4l-2.9,8.4h-1.2l-2.9-8.5
		v8.5H331z"/>
	<path d="M348,438.3c-0.5,0.4-0.9,0.7-1.3,0.8c-0.4,0.2-0.9,0.2-1.4,0.2c-0.8,0-1.4-0.2-1.8-0.6s-0.6-0.9-0.6-1.5
		c0-0.4,0.1-0.7,0.2-1c0.2-0.3,0.4-0.5,0.6-0.7c0.3-0.2,0.6-0.3,0.9-0.4c0.2-0.1,0.6-0.1,1.1-0.2c1-0.1,1.7-0.3,2.2-0.4
		c0-0.2,0-0.3,0-0.3c0-0.5-0.1-0.9-0.3-1.1c-0.3-0.3-0.8-0.4-1.4-0.4s-1,0.1-1.3,0.3c-0.3,0.2-0.5,0.6-0.6,1.1l-1.2-0.2
		c0.1-0.5,0.3-0.9,0.5-1.2c0.3-0.3,0.6-0.6,1.1-0.7c0.5-0.2,1-0.3,1.6-0.3s1.1,0.1,1.5,0.2s0.7,0.3,0.9,0.6c0.2,0.2,0.3,0.5,0.4,0.8
		c0,0.2,0.1,0.6,0.1,1.1v1.6c0,1.1,0,1.9,0.1,2.2c0.1,0.3,0.2,0.6,0.3,0.9h-1.3C348.1,439,348,438.7,348,438.3z M347.9,435.6
		c-0.4,0.2-1.1,0.3-2,0.5c-0.5,0.1-0.9,0.2-1.1,0.2s-0.4,0.2-0.5,0.4c-0.1,0.2-0.2,0.4-0.2,0.6c0,0.3,0.1,0.6,0.4,0.8
		c0.2,0.2,0.6,0.3,1.1,0.3s0.9-0.1,1.3-0.3c0.4-0.2,0.6-0.5,0.8-0.9c0.1-0.3,0.2-0.7,0.2-1.2L347.9,435.6L347.9,435.6z"/>
	<path d="M351.8,430.6v-1.4h1.2v1.4H351.8z M351.8,439.2V432h1.2v7.3L351.8,439.2L351.8,439.2z"/>
	<path d="M355.6,439.2V432h1.1v1c0.5-0.8,1.3-1.2,2.3-1.2c0.4,0,0.8,0.1,1.2,0.2c0.4,0.2,0.6,0.4,0.8,0.6s0.3,0.6,0.4,0.9
		c0,0.2,0.1,0.6,0.1,1.2v4.5h-1.2v-4.4c0-0.5,0-0.9-0.1-1.1s-0.3-0.4-0.5-0.6c-0.2-0.1-0.5-0.2-0.9-0.2c-0.5,0-1,0.2-1.4,0.5
		s-0.6,1-0.6,1.9v4L355.6,439.2L355.6,439.2z"/>
</g>
<g>
	<path class="st8" d="M260.1,11.4h-1.6v4.3H257V5.1h4c2,0,3.3,1.4,3.3,3.2c0,1.5-1,2.7-2.6,3l2.5,4.5h-1.7L260.1,11.4L260.1,11.4z
		 M260.8,10.1c1.2,0,2-0.7,2-1.8s-0.8-1.8-2-1.8h-2.2v3.6H260.8z M272.9,13.7c-0.4,1.3-1.6,2.3-3.2,2.3c-1.9,0-3.6-1.4-3.6-3.9
		c0-2.3,1.6-3.8,3.4-3.8c2.2,0,3.5,1.5,3.5,3.8v0.4h-5.4c0,1.3,1,2.2,2.2,2.2s1.8-0.6,2-1.5L272.9,13.7z M271.5,11.4
		c0-1-0.7-1.8-2-1.8c-1.2,0-1.9,0.9-2,1.8H271.5z M275.5,15.8V4.9h1.4v4.7c0.3-0.6,1.2-1.2,2.4-1.2c2.2,0,3.3,1.7,3.3,3.8
		s-1.2,3.8-3.4,3.8c-1.1,0-1.9-0.5-2.3-1.2v1H275.5z M279,9.6c-1.2,0-2.1,1-2.1,2.5c0,1.6,0.9,2.6,2.1,2.6c1.3,0,2.1-1,2.1-2.6
		C281.1,10.6,280.3,9.6,279,9.6z M286.9,11.7l1.9-0.3c0.4-0.1,0.6-0.3,0.6-0.5c0-0.7-0.5-1.3-1.6-1.3c-1,0-1.5,0.6-1.6,1.5l-1.4-0.3
		c0.2-1.4,1.4-2.3,3-2.3c2.2,0,3,1.2,3,2.6v3.6c0,0.6,0.1,1,0.1,1.2h-1.4c0-0.2-0.1-0.5-0.1-1c-0.3,0.5-1,1.2-2.3,1.2
		c-1.5,0-2.4-1-2.4-2.2C284.7,12.6,285.6,11.8,286.9,11.7L286.9,11.7z M289.4,12.7v-0.3l-2.2,0.3c-0.6,0.1-1,0.4-1,1.1
		c0,0.5,0.4,1,1.2,1C288.4,14.8,289.4,14.3,289.4,12.7z M294.3,13.5c0.1,0.8,0.7,1.3,1.7,1.3c0.8,0,1.2-0.4,1.2-1
		c0-0.4-0.3-0.8-0.9-0.9l-1.2-0.3c-1.1-0.2-1.8-1-1.8-2c0-1.2,1.2-2.3,2.6-2.3c2,0,2.6,1.3,2.7,1.9l-1.2,0.5
		c-0.1-0.4-0.4-1.2-1.5-1.2c-0.7,0-1.2,0.5-1.2,1c0,0.4,0.3,0.8,0.8,0.9l1.2,0.3c1.3,0.3,2,1.1,2,2.1s-0.9,2.2-2.6,2.2
		c-2,0-2.8-1.3-2.9-2.1L294.3,13.5L294.3,13.5z M301.9,4.8c0.6,0,1,0.4,1,1s-0.4,1-1,1s-1-0.5-1-1S301.4,4.8,301.9,4.8z M301.3,15.8
		V8.6h1.4v7.2H301.3z M307.2,15.8h-1.4V8.6h1.4v1c0.5-0.9,1.4-1.2,2.2-1.2c1.7,0,2.6,1.2,2.6,2.9v4.6h-1.4v-4.3c0-1-0.4-1.8-1.7-1.8
		c-1.1,0-1.7,0.9-1.7,2L307.2,15.8L307.2,15.8z M315.8,15.9c0.1,1,0.9,1.8,2,1.8c1.5,0,2.2-0.8,2.2-2.3v-1c-0.3,0.7-1.1,1.2-2.2,1.2
		c-1.9,0-3.3-1.5-3.3-3.5c0-1.9,1.3-3.5,3.3-3.5c1.1,0,1.9,0.4,2.2,1.1v-1h1.4v6.7c0,1.8-0.9,3.6-3.6,3.6c-1.8,0-3.1-1.1-3.3-2.7
		C314.5,16.3,315.8,15.9,315.8,15.9z M320,11.9c0-1.4-0.8-2.3-2.1-2.3c-1.2,0-2.1,0.9-2.1,2.3s0.8,2.3,2.1,2.3S320,13.3,320,11.9z
		 M330.8,8.6h1.6v1.3h-1.6v3.8c0,0.7,0.3,1,1,1c0.2,0,0.4,0,0.6-0.1v1.2c-0.1,0-0.5,0.1-1,0.1c-1.2,0-2-0.8-2-2.1v-4H328V8.6h0.4
		c0.8,0,1.1-0.5,1.1-1.1V6.3h1.3V8.6z M336.4,15.8H335V4.9h1.4v4.5c0.5-0.8,1.4-1.1,2.2-1.1c1.7,0,2.6,1.2,2.6,2.9v4.6h-1.4v-4.3
		c0-1-0.4-1.8-1.7-1.8c-1.1,0-1.6,0.8-1.7,1.9C336.4,11.6,336.4,15.8,336.4,15.8z M350.4,13.7c-0.4,1.3-1.6,2.3-3.2,2.3
		c-1.9,0-3.6-1.4-3.6-3.9c0-2.3,1.6-3.8,3.4-3.8c2.2,0,3.5,1.5,3.5,3.8v0.4h-5.4c0,1.3,1,2.2,2.2,2.2s1.8-0.6,2-1.5
		C349.3,13.2,350.4,13.7,350.4,13.7z M349,11.4c0-1-0.7-1.8-2-1.8c-1.2,0-1.9,0.9-2,1.8H349z M359.4,9.8v5.9h-1.5V9.8h-1.3V8.6h1.3
		V7.3c0-1.6,1.1-2.5,2.4-2.5c0.5,0,0.8,0.1,0.8,0.2v1.3c-0.1,0-0.3-0.1-0.6-0.1c-0.5,0-1.1,0.2-1.1,1.2v1.1h1.7v1.3L359.4,9.8
		L359.4,9.8z M369.4,13.7c-0.4,1.3-1.6,2.3-3.2,2.3c-1.9,0-3.6-1.4-3.6-3.9c0-2.3,1.6-3.8,3.4-3.8c2.2,0,3.5,1.5,3.5,3.8v0.4h-5.4
		c0,1.3,1,2.2,2.2,2.2s1.8-0.6,2-1.5C368.3,13.2,369.4,13.7,369.4,13.7z M368,11.4c0-1-0.7-1.8-2-1.8c-1.2,0-1.9,0.9-2,1.8H368z
		 M373.7,11.7l1.9-0.3c0.4-0.1,0.6-0.3,0.6-0.5c0-0.7-0.5-1.3-1.6-1.3c-1,0-1.5,0.6-1.6,1.5l-1.4-0.3c0.2-1.4,1.4-2.3,3-2.3
		c2.2,0,3,1.2,3,2.6v3.6c0,0.6,0.1,1,0.1,1.2h-1.4c0-0.2-0.1-0.5-0.1-1c-0.3,0.5-1,1.2-2.3,1.2c-1.5,0-2.4-1-2.4-2.2
		C371.6,12.6,372.5,11.8,373.7,11.7L373.7,11.7z M376.3,12.7v-0.3l-2.2,0.3c-0.6,0.1-1,0.4-1,1.1c0,0.5,0.4,1,1.2,1
		C375.3,14.8,376.3,14.3,376.3,12.7z M382.5,8.6h1.6v1.3h-1.6v3.8c0,0.7,0.3,1,1,1c0.2,0,0.4,0,0.6-0.1v1.2c-0.1,0-0.5,0.1-1,0.1
		c-1.2,0-2-0.8-2-2.1v-4h-1.4V8.6h0.4c0.8,0,1.1-0.5,1.1-1.1V6.3h1.3V8.6z M389.3,16c-1.7,0-2.7-1.3-2.7-2.9V8.6h1.4v4.3
		c0,1,0.4,1.9,1.6,1.9c1.1,0,1.7-0.8,1.7-1.8V8.6h1.4v5.9c0,0.6,0,1.1,0.1,1.3h-1.4c0-0.2-0.1-0.6-0.1-0.9
		C391,15.7,390.1,16,389.3,16z M399.9,10h-0.6c-1.2,0-2,0.6-2,2.2v3.6h-1.4V8.6h1.4v1.3c0.5-1.1,1.4-1.4,2.2-1.4h0.5V10H399.9z
		 M408.4,13.7c-0.4,1.3-1.6,2.3-3.2,2.3c-1.9,0-3.6-1.4-3.6-3.9c0-2.3,1.6-3.8,3.4-3.8c2.2,0,3.5,1.5,3.5,3.8v0.4h-5.4
		c0,1.3,1,2.2,2.2,2.2s1.8-0.6,2-1.5L408.4,13.7z M407,11.4c0-1-0.7-1.8-2-1.8c-1.2,0-1.9,0.9-2,1.8H407z M415.5,15.8V4.9h1.4v4.7
		c0.3-0.6,1.2-1.2,2.4-1.2c2.2,0,3.3,1.7,3.3,3.8s-1.2,3.8-3.4,3.8c-1.1,0-1.9-0.5-2.3-1.2v1H415.5z M419,9.6c-1.2,0-2.1,1-2.1,2.5
		c0,1.6,0.9,2.6,2.1,2.6c1.3,0,2.1-1,2.1-2.6C421.1,10.6,420.3,9.6,419,9.6z M429.1,10h-0.6c-1.2,0-2,0.6-2,2.2v3.6h-1.4V8.6h1.4
		v1.3c0.5-1.1,1.4-1.4,2.2-1.4h0.5V10H429.1z M433.1,11.7l1.9-0.3c0.4-0.1,0.6-0.3,0.6-0.5c0-0.7-0.5-1.3-1.6-1.3
		c-1,0-1.5,0.6-1.6,1.5l-1.4-0.3c0.2-1.4,1.4-2.3,3-2.3c2.2,0,3,1.2,3,2.6v3.6c0,0.6,0.1,1,0.1,1.2h-1.4c0-0.2-0.1-0.5-0.1-1
		c-0.3,0.5-1,1.2-2.3,1.2c-1.5,0-2.4-1-2.4-2.2C430.9,12.6,431.9,11.8,433.1,11.7L433.1,11.7z M435.6,12.7v-0.3l-2.2,0.3
		c-0.6,0.1-1.1,0.4-1.1,1.1c0,0.5,0.4,1,1.2,1C434.7,14.8,435.6,14.3,435.6,12.7z M441.4,15.8H440V8.6h1.4v1
		c0.5-0.9,1.4-1.2,2.2-1.2c1.7,0,2.6,1.2,2.6,2.9v4.6h-1.4v-4.3c0-1-0.4-1.8-1.7-1.8c-1.1,0-1.7,0.9-1.7,2V15.8z M450,12.2
		c0,1.6,1,2.5,2.2,2.5c1.3,0,1.8-0.9,2-1.5l1.2,0.5c-0.3,1-1.4,2.3-3.3,2.3c-2.1,0-3.6-1.6-3.6-3.8s1.6-3.8,3.6-3.8
		c1.9,0,2.9,1.2,3.2,2.3l-1.3,0.5c-0.2-0.7-0.7-1.5-1.9-1.5C451,9.6,450,10.5,450,12.2L450,12.2z M459.3,15.8h-1.4V4.9h1.4v4.5
		c0.5-0.8,1.4-1.1,2.2-1.1c1.7,0,2.6,1.2,2.6,2.9v4.6h-1.5v-4.3c0-1-0.4-1.8-1.7-1.8c-1.1,0-1.6,0.8-1.7,1.9v4.2L459.3,15.8z
		 M478.3,12.2c0,2.2-1.5,3.8-3.7,3.8s-3.7-1.6-3.7-3.8s1.5-3.8,3.7-3.8S478.3,10,478.3,12.2z M476.9,12.2c0-1.7-1.1-2.6-2.2-2.6
		s-2.2,0.9-2.2,2.6s1.1,2.6,2.2,2.6S476.9,13.8,476.9,12.2z M482.3,15.8h-1.4V8.6h1.4v1c0.5-0.9,1.4-1.2,2.2-1.2
		c1.7,0,2.6,1.2,2.6,2.9v4.6h-1.5v-4.3c0-1-0.4-1.8-1.7-1.8c-1.1,0-1.7,0.9-1.7,2v4C482.2,15.8,482.3,15.8,482.3,15.8z M491.9,8.6
		h1.6v1.3h-1.6v3.8c0,0.7,0.3,1,1,1c0.2,0,0.4,0,0.6-0.1v1.2c-0.1,0-0.5,0.1-1,0.1c-1.2,0-2-0.8-2-2.1v-4h-1.4V8.6h0.4
		c0.8,0,1.1-0.5,1.1-1.1V6.3h1.3V8.6z M502.8,12.2c0,2.2-1.5,3.8-3.7,3.8s-3.7-1.6-3.7-3.8s1.5-3.8,3.7-3.8S502.8,10,502.8,12.2z
		 M501.4,12.2c0-1.7-1.1-2.6-2.2-2.6s-2.2,0.9-2.2,2.6s1,2.6,2.2,2.6S501.4,13.8,501.4,12.2z"/>
	<g>
		<g>
			<path class="st8" d="M509.9,15.9V8.7h1.3v1c0.5-0.8,1.4-1.2,2.2-1.2c0.9,0,1.8,0.4,2.2,1.4c0.6-1,1.5-1.4,2.4-1.4
				c1.3,0,2.5,0.9,2.5,2.7v4.7h-1.4v-4.6c0-0.9-0.5-1.6-1.5-1.6s-1.7,0.8-1.7,1.8v4.4h-1.4v-4.6c0-0.9-0.4-1.6-1.5-1.6
				c-1,0-1.7,0.7-1.7,1.8v4.3h-1.4V15.9z M525.3,11.7l1.9-0.3c0.4-0.1,0.6-0.3,0.6-0.5c0-0.7-0.5-1.3-1.6-1.3c-1,0-1.5,0.6-1.6,1.5
				l-1.4-0.3c0.2-1.4,1.4-2.3,3-2.3c2.2,0,3,1.2,3,2.6v3.6c0,0.6,0.1,1,0.1,1.2h-1.4c0-0.2-0.1-0.5-0.1-1c-0.3,0.5-1,1.2-2.3,1.2
				c-1.5,0-2.4-1-2.4-2.2C523.1,12.6,524,11.9,525.3,11.7L525.3,11.7z M527.8,12.8v-0.3l-2.2,0.3c-0.6,0.1-1,0.4-1,1.1
				c0,0.5,0.4,1,1.2,1C526.8,14.9,527.8,14.4,527.8,12.8z M533,4.9c0.6,0,1,0.4,1,1s-0.4,1-1,1c-0.6,0-1-0.5-1-1S532.4,4.9,533,4.9z
				 M532.3,15.9V8.7h1.4v7.2H532.3z M538.2,15.9h-1.4V8.7h1.4v1c0.5-0.9,1.4-1.2,2.2-1.2c1.7,0,2.6,1.2,2.6,2.9V16h-1.4v-4.5
				c0-1-0.4-1.8-1.7-1.8c-1.1,0-1.7,0.9-1.7,2V15.9z"/>
		</g>
	</g>
</g>
</svg>
