<svg xmlns="http://www.w3.org/2000/svg" height="45" width="227.39"><defs><style>.cls-1{fill:#f07f3c;}.cls-2{fill:#00707f;}.cls-3{fill:#f8aa00;}.cls-4{fill:#ffd000;}.cls-5{fill:#e62d31;}.cls-6{fill:#c6c0b4;}.cls-7{fill:#8c8b82;}.cls-8{fill:#b9cd76;}.cls-9{fill:#7db928;}.cls-10{fill:#289b38;}.cls-11{fill:#00843b;}.cls-12{fill:#005ca9;}.cls-13{fill:#1fbadb;}.cls-14{fill:#a8589e;}.cls-15{fill:#5b257d;}.cls-16{fill:#5fa4b0;}.cls-17{fill:#5b57a2;}.cls-18{fill:#8da6d6;}</style></defs><title>uLIEGE_Faculte_SciencesAppliquees_Logo</title><g id="Calque_2" data-name="Calque 2"><g id="faculté"><path class="cls-1" d="M47.29,30.61a5.46,5.46,0,0,0,3.39,1.44c1.29,0,1.93-.51,1.93-1.33s-.79-1.15-2-1.66l-1.78-.76A4,4,0,0,1,46,24.53c0-2.29,2.05-4.11,4.91-4.11a6.37,6.37,0,0,1,4.45,1.82l-1.57,2A4.52,4.52,0,0,0,51,23.11c-1.06,0-1.76.46-1.76,1.25s.92,1.14,2.12,1.63l1.76.72a3.81,3.81,0,0,1,2.74,3.75c0,2.29-1.91,4.28-5.2,4.28a7.66,7.66,0,0,1-5.12-2Z"/><path class="cls-1" d="M62.5,23.72a4.23,4.23,0,0,1,3.07,1.21l-1.42,1.93a2.25,2.25,0,0,0-1.46-.62c-1.5,0-2.46,1.17-2.46,3s1,3,2.36,3a3,3,0,0,0,1.88-.76l1.25,2a5.43,5.43,0,0,1-3.49,1.31c-2.93,0-5.2-2-5.2-5.51A5.29,5.29,0,0,1,62.5,23.72Z"/><path class="cls-1" d="M66.78,20.8a1.65,1.65,0,0,1,1.81-1.61,1.63,1.63,0,0,1,1.8,1.61,1.65,1.65,0,0,1-1.8,1.63A1.67,1.67,0,0,1,66.78,20.8ZM67,24h3.11V34.49H67Z"/><path class="cls-1" d="M76.82,23.72c3,0,4.47,2.19,4.47,5.05a5.68,5.68,0,0,1-.13,1.31H74.87a2.54,2.54,0,0,0,2.73,2.29,4.19,4.19,0,0,0,2.27-.7l1,1.89a6.88,6.88,0,0,1-3.73,1.18,5.12,5.12,0,0,1-5.32-5.51A5.17,5.17,0,0,1,76.82,23.72Zm1.82,4.43c0-1.21-.51-2-1.76-2-1,0-1.82.65-2,2Z"/><path class="cls-1" d="M83.09,24h2.55l.21,1.33h.08a4.84,4.84,0,0,1,3.37-1.59c2.29,0,3.27,1.61,3.27,4.24v6.53H89.45V28.36c0-1.52-.4-2-1.29-2a2.65,2.65,0,0,0-2,1v7.1H83.09Z"/><path class="cls-1" d="M99.72,23.72a4.25,4.25,0,0,1,3.08,1.21l-1.42,1.93a2.29,2.29,0,0,0-1.46-.62c-1.51,0-2.46,1.17-2.46,3s1,3,2.35,3a3.06,3.06,0,0,0,1.89-.76l1.25,2a5.47,5.47,0,0,1-3.5,1.31c-2.93,0-5.19-2-5.19-5.51A5.28,5.28,0,0,1,99.72,23.72Z"/><path class="cls-1" d="M108.44,23.72c3,0,4.47,2.19,4.47,5.05a6.45,6.45,0,0,1-.12,1.31h-6.3a2.55,2.55,0,0,0,2.73,2.29,4.19,4.19,0,0,0,2.27-.7l1,1.89a6.88,6.88,0,0,1-3.73,1.18,5.12,5.12,0,0,1-5.32-5.51A5.17,5.17,0,0,1,108.44,23.72Zm1.82,4.43c0-1.21-.51-2-1.76-2-1,0-1.82.65-2,2Z"/><path class="cls-1" d="M115.13,31.33a4.52,4.52,0,0,0,2.71,1.1c.94,0,1.34-.34,1.34-.89s-1.06-1-2.14-1.44c-1.27-.49-2.78-1.35-2.78-3.09,0-2,1.59-3.29,4-3.29A6,6,0,0,1,122,25.06l-1.4,1.86a3.87,3.87,0,0,0-2.23-.89c-.8,0-1.18.3-1.18.83s1,.93,2,1.33c1.34.49,2.84,1.23,2.84,3.16s-1.5,3.39-4.32,3.39a6.78,6.78,0,0,1-4-1.46Z"/><path class="cls-1" d="M135.2,31.2H131l-.85,3.29h-3.18l4.35-13.82H135l4.34,13.82h-3.3Zm-.64-2.43-.34-1.28c-.38-1.37-.74-3-1.12-4.45H133c-.32,1.47-.7,3.08-1.08,4.45l-.34,1.28Z"/><path class="cls-1" d="M143.6,35.31v3.08h-3.11V24H143l.21,1h.09a4.58,4.58,0,0,1,3-1.3c2.54,0,4.11,2.1,4.11,5.34,0,3.61-2.16,5.68-4.43,5.68a3.64,3.64,0,0,1-2.5-1.1Zm1.68-3.11c1.08,0,1.95-.93,1.95-3.09,0-1.89-.57-2.84-1.82-2.84a2.43,2.43,0,0,0-1.81.95v4.3A2.44,2.44,0,0,0,145.28,32.2Z"/><path class="cls-1" d="M155.42,35.31v3.08H152.3V24h2.55l.21,1h.08a4.6,4.6,0,0,1,3-1.3c2.54,0,4.11,2.1,4.11,5.34,0,3.61-2.16,5.68-4.43,5.68a3.64,3.64,0,0,1-2.5-1.1Zm1.67-3.11c1.08,0,1.95-.93,1.95-3.09,0-1.89-.57-2.84-1.82-2.84a2.4,2.4,0,0,0-1.8.95v4.3A2.4,2.4,0,0,0,157.09,32.2Z"/><path class="cls-1" d="M164.08,19.63h3.12V31.35c0,.66.3.87.55.87a1.36,1.36,0,0,0,.38,0l.38,2.31a4.05,4.05,0,0,1-1.57.25c-2.14,0-2.86-1.4-2.86-3.52Z"/><path class="cls-1" d="M169.61,20.8a1.81,1.81,0,1,1,1.8,1.63A1.66,1.66,0,0,1,169.61,20.8Zm.25,3.18H173V34.49h-3.12Z"/><path class="cls-1" d="M179.12,23.72a3.56,3.56,0,0,1,2.8,1.3H182l.26-1h2.43V38.39h-3.11v-3.2l.12-1.61a4,4,0,0,1-2.64,1.16c-2.61,0-4.31-2.07-4.31-5.51S176.89,23.72,179.12,23.72Zm.74,8.48a2,2,0,0,0,1.72-1V26.94a2.53,2.53,0,0,0-1.74-.67c-1,0-1.89.93-1.89,2.92S178.65,32.2,179.86,32.2Z"/><path class="cls-1" d="M187,24h3.11V30.1c0,1.51.43,2,1.32,2a2.15,2.15,0,0,0,1.86-1.16V24h3.12V34.49h-2.54L193.6,33h-.08a4.07,4.07,0,0,1-3.31,1.71c-2.29,0-3.26-1.61-3.26-4.24Z"/><path class="cls-1" d="M203.1,23.72c3,0,4.47,2.19,4.47,5.05a6.3,6.3,0,0,1-.13,1.31h-6.29a2.54,2.54,0,0,0,2.73,2.29,4.24,4.24,0,0,0,2.27-.7l1,1.89a6.91,6.91,0,0,1-3.73,1.18,5.12,5.12,0,0,1-5.32-5.51C198.14,25.82,200.57,23.72,203.1,23.72Zm1.82,4.43c0-1.21-.51-2-1.76-2-1,0-1.82.65-2,2Zm-1.29-5.83h-2.27l1.88-3.17h3Z"/><path class="cls-1" d="M213.75,23.72c3,0,4.47,2.19,4.47,5.05a6.45,6.45,0,0,1-.12,1.31h-6.3a2.55,2.55,0,0,0,2.74,2.29,4.18,4.18,0,0,0,2.26-.7l1,1.89a6.88,6.88,0,0,1-3.73,1.18,5.12,5.12,0,0,1-5.32-5.51A5.17,5.17,0,0,1,213.75,23.72Zm1.82,4.43c0-1.21-.5-2-1.75-2-1,0-1.83.65-2,2Z"/><path class="cls-1" d="M220.44,31.33a4.56,4.56,0,0,0,2.72,1.1c.93,0,1.33-.34,1.33-.89s-1.06-1-2.14-1.44c-1.27-.49-2.78-1.35-2.78-3.09,0-2,1.59-3.29,4-3.29a6,6,0,0,1,3.71,1.34l-1.4,1.86a3.87,3.87,0,0,0-2.23-.89c-.8,0-1.18.3-1.18.83s1,.93,2.05,1.33c1.34.49,2.84,1.23,2.84,3.16s-1.5,3.39-4.32,3.39a6.78,6.78,0,0,1-4-1.46Z"/><path class="cls-2" d="M86.55,6.08h1.73v4.41c0,1.22.35,1.67,1.14,1.67s1.09-.3,1.65-1V6.08H92.8v7.39H91.38l-.13-1.08h0a3,3,0,0,1-2.38,1.26c-1.58,0-2.27-1.07-2.27-2.93Z"/><path class="cls-2" d="M94.8,6.08h1.43l.12,1h.06A3.44,3.44,0,0,1,98.84,5.9c1.58,0,2.27,1.06,2.27,2.93v4.64H99.38V9.06c0-1.22-.34-1.67-1.16-1.67a2.32,2.32,0,0,0-1.69.92v5.16H94.8Z"/><path class="cls-2" d="M103.34,6.08h1.74v7.39h-1.74Z"/><path class="cls-2" d="M106.37,6.08h1.76l1.18,3.84c.19.72.42,1.47.62,2.23H110c.21-.76.42-1.51.63-2.23l1.17-3.84h1.68L111,13.47h-2Z"/><path class="cls-2" d="M117.4,5.9c2,0,3.06,1.44,3.06,3.51a3.38,3.38,0,0,1-.08.81h-4.7a2.12,2.12,0,0,0,2.18,2.09,3,3,0,0,0,1.72-.54l.59,1.09a4.73,4.73,0,0,1-2.53.79A3.57,3.57,0,0,1,114,9.78,3.59,3.59,0,0,1,117.4,5.9ZM119,9.12c0-1.18-.5-1.88-1.51-1.88s-1.62.64-1.78,1.88Z"/><path class="cls-2" d="M122.26,6.08h1.43l.12,1.31h.06A2.52,2.52,0,0,1,126,5.9a1.78,1.78,0,0,1,.84.15l-.3,1.5a2.59,2.59,0,0,0-.77-.12c-.58,0-1.29.41-1.74,1.52v4.52h-1.74Z"/><path class="cls-2" d="M127.88,11.51a3.25,3.25,0,0,0,2.05.83c.8,0,1.17-.37,1.17-.89s-.79-.88-1.58-1.19c-1-.36-2.08-.91-2.08-2.15s1-2.21,2.7-2.21a4.07,4.07,0,0,1,2.46.88l-.8,1.06a2.73,2.73,0,0,0-1.63-.63c-.74,0-1.08.34-1.08.81s.73.81,1.53,1.1c1,.38,2.13.86,2.13,2.24s-1,2.29-2.88,2.29a4.65,4.65,0,0,1-2.8-1Z"/><path class="cls-2" d="M134.46,6.08h1.74v7.39h-1.74Z"/><path class="cls-2" d="M138.86,7.45h-1.05V6.15L139,6.08l.21-2h1.45v2h1.88V7.45h-1.88V11c0,.88.33,1.3,1,1.3a2.12,2.12,0,0,0,.77-.17l.3,1.28a4.63,4.63,0,0,1-1.51.27c-1.72,0-2.35-1.08-2.35-2.68Z"/><path class="cls-2" d="M147,5.9c2,0,3.06,1.44,3.06,3.51a3.38,3.38,0,0,1-.08.81h-4.7a2.13,2.13,0,0,0,2.19,2.09,3.09,3.09,0,0,0,1.72-.54l.58,1.09a4.68,4.68,0,0,1-2.53.79,3.56,3.56,0,0,1-3.64-3.87A3.59,3.59,0,0,1,147,5.9Zm1.55,3.22c0-1.18-.49-1.88-1.5-1.88s-1.63.64-1.78,1.88Z"/><path class="cls-2" d="M103.15,4a1.07,1.07,0,1,1,1.07,1A1,1,0,0,1,103.15,4Z"/><path class="cls-2" d="M134.27,4a1.07,1.07,0,1,1,1.07,1A1,1,0,0,1,134.27,4Z"/><polygon class="cls-2" points="147.19 5.2 145.91 5.2 147.25 3 148.99 3 147.19 5.2"/><path class="cls-2" d="M45.53,3h2.35v8.45H52v2H45.53Z"/><path class="cls-2" d="M53.55,3H55.9V13.46H53.55Z"/><polygon class="cls-2" points="57.75 3.03 64.28 3.03 64.28 5.01 60.1 5.01 60.1 7.11 63.65 7.11 63.65 9.08 60.1 9.08 60.1 11.48 64.44 11.48 64.44 13.46 57.75 13.46 57.75 3.03"/><polygon class="cls-2" points="58.53 0 61.03 0 62.32 1.92 60.45 1.92 58.53 0"/><path class="cls-2" d="M65.24,8.31A6.15,6.15,0,0,1,65.64,6a5.06,5.06,0,0,1,1.11-1.72A4.74,4.74,0,0,1,68.38,3.2a5.49,5.49,0,0,1,2-.36,4,4,0,0,1,1.91.41,5.09,5.09,0,0,1,1.33,1l-1.3,1.45a3.24,3.24,0,0,0-.81-.57,2.48,2.48,0,0,0-1.1-.21,2.57,2.57,0,0,0-1.11.23,2.64,2.64,0,0,0-.87.66,3.25,3.25,0,0,0-.57,1.06,4.71,4.71,0,0,0-.2,1.41,3.86,3.86,0,0,0,.73,2.5,2.69,2.69,0,0,0,2.2.89,2.57,2.57,0,0,0,.62-.08,1.17,1.17,0,0,0,.5-.24V9.51H70V7.59h3.81v4.8a4.53,4.53,0,0,1-1.47.89,5.27,5.27,0,0,1-2,.37,5.55,5.55,0,0,1-2-.34,4.51,4.51,0,0,1-1.61-1,4.64,4.64,0,0,1-1.08-1.67A6.35,6.35,0,0,1,65.24,8.31Z"/><path class="cls-2" d="M75.32,3h6.53V5H77.67v2.1h3.55v2H77.67v2.4H82v2H75.32Z"/><polygon class="cls-3" points="9.1 18.72 0 23.98 0 13.46 9.1 18.72"/><polygon class="cls-4" points="0 23.98 9.1 18.72 9.1 29.23 0 23.98"/><polygon class="cls-1" points="9.1 29.23 0 34.49 0 23.98 9.1 29.23"/><polygon class="cls-5" points="0 34.49 9.1 29.23 9.1 39.74 0 34.49"/><polygon class="cls-6" points="9.1 8.21 0 13.46 0 2.95 9.1 8.21"/><polygon class="cls-7" points="0 13.46 9.1 8.21 9.1 18.72 0 13.46"/><polygon class="cls-8" points="18.21 13.46 9.1 8.21 9.1 18.72 18.21 13.46"/><polygon class="cls-9" points="9.1 18.72 18.21 23.98 18.21 13.46 9.1 18.72"/><polygon class="cls-10" points="18.21 23.98 9.1 18.72 9.1 29.23 18.21 23.98"/><polygon class="cls-11" points="9.1 29.23 18.21 34.49 18.21 23.98 9.1 29.23"/><polygon class="cls-12" points="9.1 39.74 18.21 45 18.21 34.49 9.1 39.74"/><polygon class="cls-13" points="18.21 34.49 9.1 29.23 9.1 39.74 18.21 34.49"/><polygon class="cls-14" points="18.21 34.49 27.31 39.74 27.31 29.23 18.21 34.49"/><polygon class="cls-15" points="27.31 39.74 18.21 34.49 18.21 45 27.31 39.74"/><polygon class="cls-2" points="36.42 13.46 27.31 18.72 27.31 8.21 36.42 13.46"/><polygon class="cls-16" points="27.31 8.21 36.42 2.95 36.42 13.46 27.31 8.21"/><polygon class="cls-17" points="36.42 34.49 27.31 39.74 27.31 29.23 36.42 34.49"/><polygon class="cls-18" points="27.31 29.23 36.42 23.98 36.42 34.49 27.31 29.23"/></g></g></svg>