<?xml version="1.0" encoding="utf-8"?>
<!-- Generator: Adobe Illustrator 25.0.1, SVG Export Plug-In . SVG Version: 6.00 Build 0)  -->
<svg version="1.1" id="Lager_1" xmlns="http://www.w3.org/2000/svg" xmlns:xlink="http://www.w3.org/1999/xlink" x="0px" y="0px"
	 viewBox="0 0 800 536" style="enable-background:new 0 0 800 536;" xml:space="preserve">
<style type="text/css">
	.st0{fill:#999999;}
	.st1{fill:#404040;}
	.st2{fill:#FFFFFF;stroke:#404040;stroke-width:4;stroke-linecap:round;stroke-linejoin:round;stroke-miterlimit:10;}
	.st3{fill:none;stroke:#404040;stroke-width:4;stroke-miterlimit:10;}
	.st4{fill:#4ED1A1;stroke:#404040;stroke-width:4;stroke-miterlimit:10;}
	.st5{fill:#FFFFFF;stroke:#404040;stroke-width:4;stroke-miterlimit:10;}
	.st6{fill:#B3E3FF;stroke:#404040;stroke-width:4;stroke-miterlimit:10;}
	.st7{fill:#B3E3FF;stroke:#404040;stroke-width:4;stroke-linejoin:round;stroke-miterlimit:10;}
	.st8{fill:#4ED1A1;stroke:#404040;stroke-width:4;stroke-linecap:round;stroke-linejoin:round;stroke-miterlimit:10;}
	.st9{fill:none;stroke:#404040;stroke-width:4;stroke-linecap:round;stroke-linejoin:round;stroke-miterlimit:10;}
</style>
<g>
	<path class="st0" d="M271.5,14.1V5.8l-3.6,8.3h-1.3L263,5.8v8.3h-1.5V3.4h2l3.7,8.7l3.8-8.7h2V14L271.5,14.1L271.5,14.1z M282.6,12
		c-0.4,1.3-1.6,2.3-3.2,2.3c-1.9,0-3.6-1.4-3.6-3.9c0-2.3,1.6-3.8,3.4-3.8c2.2,0,3.5,1.5,3.5,3.8v0.4h-5.5c0,1.3,1,2.2,2.2,2.2
		s1.8-0.6,2-1.5C281.4,11.5,282.6,12,282.6,12z M281.1,9.7c0-1-0.7-1.8-2-1.8c-1.2,0-1.9,0.9-2,1.8H281.1z M289.2,8.3h-0.6
		c-1.2,0-2,0.6-2,2.2v3.6h-1.4V6.9h1.4v1.3c0.5-1.1,1.4-1.4,2.2-1.4h0.5v1.5L289.2,8.3z M292.2,14.1c0.1,1,0.9,1.8,2,1.8
		c1.5,0,2.2-0.8,2.2-2.3v-1c-0.3,0.7-1.1,1.2-2.2,1.2c-1.9,0-3.3-1.5-3.3-3.5c0-1.9,1.3-3.5,3.3-3.5c1.1,0,1.9,0.4,2.2,1.1v-1h1.4
		v6.7c0,1.8-0.9,3.6-3.6,3.6c-1.8,0-3.1-1.1-3.3-2.7C290.9,14.5,292.2,14.1,292.2,14.1z M296.4,10.2c0-1.4-0.8-2.3-2.1-2.3
		c-1.2,0-2.1,0.9-2.1,2.3s0.8,2.3,2.1,2.3S296.4,11.6,296.4,10.2z M301.5,3.1c0.6,0,1,0.4,1,1s-0.4,1-1,1s-1-0.5-1-1
		C300.4,3.6,300.9,3.1,301.5,3.1z M300.8,14.1V6.9h1.4v7.2H300.8z M306.7,14.1h-1.4V6.9h1.4v1c0.5-0.9,1.4-1.2,2.2-1.2
		c1.7,0,2.6,1.2,2.6,2.9v4.6h-1.4V9.7c0-1-0.4-1.8-1.7-1.8c-1.1,0-1.7,0.9-1.7,2V14.1z M315.3,14.1c0.1,1,0.9,1.8,2,1.8
		c1.5,0,2.2-0.8,2.2-2.3v-1c-0.3,0.7-1.1,1.2-2.2,1.2c-1.9,0-3.3-1.5-3.3-3.5c0-1.9,1.3-3.5,3.3-3.5c1.1,0,1.9,0.4,2.2,1.1v-1h1.4
		v6.7c0,1.8-0.9,3.6-3.6,3.6c-1.8,0-3.1-1.1-3.3-2.7C314,14.5,315.3,14.1,315.3,14.1z M319.6,10.2c0-1.4-0.8-2.3-2.1-2.3
		c-1.2,0-2.1,0.9-2.1,2.3s0.8,2.3,2.1,2.3C318.7,12.5,319.6,11.6,319.6,10.2z M370.5,3.1c0.6,0,1,0.4,1,1s-0.4,1-1,1s-1-0.5-1-1
		S369.9,3.1,370.5,3.1z M369.8,14.1V6.9h1.4v7.2H369.8z M375.7,14.1h-1.4V6.9h1.4v1c0.5-0.9,1.4-1.2,2.2-1.2c1.7,0,2.6,1.2,2.6,2.9
		v4.6h-1.4V9.7c0-1-0.4-1.8-1.7-1.8c-1.1,0-1.7,0.9-1.7,2V14.1z M385.4,6.9h1.6v1.3h-1.6V12c0,0.7,0.3,1,1,1c0.2,0,0.4,0,0.6-0.1V14
		c-0.1,0-0.5,0.1-1,0.1c-1.2,0-2-0.8-2-2.1V8h-1.4V6.9h0.4c0.8,0,1.1-0.5,1.1-1.1V4.6h1.3V6.9z M396.3,10.5c0,2.2-1.5,3.8-3.7,3.8
		s-3.7-1.6-3.7-3.8s1.5-3.8,3.7-3.8S396.3,8.3,396.3,10.5z M394.8,10.5c0-1.7-1.1-2.6-2.2-2.6s-2.2,0.9-2.2,2.6s1,2.6,2.2,2.6
		S394.8,12.1,394.8,10.5z M405.2,6.9h1.6v1.3h-1.6V12c0,0.7,0.3,1,1,1c0.2,0,0.4,0,0.6-0.1V14c-0.1,0-0.5,0.1-1,0.1
		c-1.2,0-2-0.8-2-2.1V8h-1.4V6.9h0.4c0.8,0,1.1-0.5,1.1-1.1V4.6h1.3V6.9z M410.8,14.1h-1.4V3.2h1.4v4.5c0.5-0.8,1.4-1.1,2.2-1.1
		c1.7,0,2.6,1.2,2.6,2.9v4.6h-1.4V9.7c0-1-0.4-1.8-1.7-1.8c-1.1,0-1.6,0.8-1.7,1.9L410.8,14.1L410.8,14.1z M424.9,12
		c-0.4,1.3-1.6,2.3-3.2,2.3c-1.9,0-3.6-1.4-3.6-3.9c0-2.3,1.6-3.8,3.4-3.8c2.2,0,3.5,1.5,3.5,3.8v0.4h-5.4c0,1.3,1,2.2,2.2,2.2
		s1.8-0.6,2-1.5C423.8,11.5,424.9,12,424.9,12z M423.4,9.7c0-1-0.7-1.8-2-1.8c-1.2,0-1.9,0.9-2,1.8H423.4z M433.9,8.1V14h-1.5V8.1
		h-1.3V6.9h1.3V5.6c0-1.6,1.1-2.5,2.4-2.5c0.5,0,0.8,0.1,0.8,0.2v1.3c-0.1,0-0.3-0.1-0.6-0.1c-0.5,0-1.1,0.2-1.1,1.2v1.1h1.7v1.3
		L433.9,8.1L433.9,8.1z M443.8,12c-0.4,1.3-1.6,2.3-3.2,2.3c-1.9,0-3.6-1.4-3.6-3.9c0-2.3,1.6-3.8,3.4-3.8c2.2,0,3.5,1.5,3.5,3.8
		v0.4h-5.4c0,1.3,1,2.2,2.2,2.2s1.8-0.6,2-1.5C442.7,11.5,443.8,12,443.8,12z M442.4,9.7c0-1-0.7-1.8-2-1.8c-1.2,0-1.9,0.9-2,1.8
		H442.4z M448.2,9.9l1.9-0.3c0.4-0.1,0.6-0.3,0.6-0.5c0-0.7-0.5-1.3-1.6-1.3c-1,0-1.5,0.6-1.6,1.5L446.1,9c0.2-1.4,1.4-2.3,3-2.3
		c2.2,0,3,1.2,3,2.6v3.6c0,0.6,0.1,1,0.1,1.2h-1.4c0-0.2-0.1-0.5-0.1-1c-0.3,0.5-1,1.2-2.3,1.2c-1.5,0-2.4-1-2.4-2.2
		C446,10.8,446.9,10.1,448.2,9.9L448.2,9.9z M450.7,11v-0.3l-2.2,0.3c-0.6,0.1-1,0.4-1,1.1c0,0.5,0.4,1,1.2,1
		C449.7,13.1,450.7,12.6,450.7,11z M456.9,6.9h1.6v1.3h-1.6V12c0,0.7,0.3,1,1,1c0.2,0,0.4,0,0.6-0.1V14c-0.1,0-0.5,0.1-1,0.1
		c-1.2,0-2-0.8-2-2.1V8h-1.4V6.9h0.4c0.8,0,1.1-0.5,1.1-1.1V4.6h1.3V6.9z M463.7,14.3c-1.7,0-2.7-1.3-2.7-2.9V6.9h1.4v4.3
		c0,1,0.4,1.9,1.6,1.9c1.1,0,1.7-0.8,1.7-1.8V6.9h1.4v5.9c0,0.6,0,1.1,0.1,1.3h-1.4c0-0.2-0.1-0.6-0.1-0.9
		C465.5,13.9,464.6,14.3,463.7,14.3z M474.3,8.3h-0.6c-1.2,0-2,0.6-2,2.2v3.6h-1.4V6.9h1.4v1.3c0.5-1.1,1.4-1.4,2.2-1.4h0.5v1.5
		L474.3,8.3z M482.8,12c-0.4,1.3-1.6,2.3-3.2,2.3c-1.9,0-3.6-1.4-3.6-3.9c0-2.3,1.6-3.8,3.4-3.8c2.2,0,3.5,1.5,3.5,3.8v0.4h-5.4
		c0,1.3,1,2.2,2.2,2.2s1.8-0.6,2-1.5C481.7,11.5,482.8,12,482.8,12z M481.4,9.7c0-1-0.7-1.8-2-1.8c-1.2,0-1.9,0.9-2,1.8H481.4z
		 M489.9,14.1V3.2h1.4v4.7c0.3-0.6,1.2-1.2,2.4-1.2c2.2,0,3.3,1.7,3.3,3.8s-1.2,3.8-3.4,3.8c-1.1,0-1.9-0.5-2.3-1.2v1H489.9z
		 M493.4,7.9c-1.2,0-2.1,1-2.1,2.5c0,1.6,0.9,2.6,2.1,2.6c1.3,0,2.1-1,2.1-2.6C495.6,8.9,494.7,7.9,493.4,7.9z M503.6,8.3H503
		c-1.2,0-2,0.6-2,2.2v3.6h-1.4V6.9h1.4v1.3c0.5-1.1,1.4-1.4,2.2-1.4h0.5v1.5L503.6,8.3z M507.5,9.9l1.9-0.3c0.4-0.1,0.6-0.3,0.6-0.5
		c0-0.7-0.5-1.3-1.6-1.3c-1,0-1.5,0.6-1.6,1.5L505.5,9c0.2-1.4,1.4-2.3,3-2.3c2.2,0,3,1.2,3,2.6v3.6c0,0.6,0.1,1,0.1,1.2h-1.4
		c0-0.2-0.1-0.5-0.1-1c-0.3,0.5-1,1.2-2.3,1.2c-1.5,0-2.4-1-2.4-2.2C505.4,10.8,506.3,10.1,507.5,9.9z M510,11v-0.3l-2.2,0.3
		c-0.6,0.1-1,0.4-1,1.1c0,0.5,0.4,1,1.2,1C509.1,13.1,510,12.6,510,11z M515.8,14.1h-1.4V6.9h1.4v1c0.5-0.9,1.4-1.2,2.2-1.2
		c1.7,0,2.6,1.2,2.6,2.9v4.6h-1.4V9.7c0-1-0.4-1.8-1.7-1.8c-1.1,0-1.7,0.9-1.7,2V14.1L515.8,14.1z M524.4,10.5c0,1.6,1,2.5,2.2,2.5
		c1.3,0,1.8-0.9,2-1.5l1.2,0.5c-0.3,1-1.4,2.2-3.3,2.2c-2.1,0-3.6-1.6-3.6-3.8s1.6-3.8,3.6-3.8c1.9,0,2.9,1.2,3.2,2.3l-1.3,0.5
		c-0.2-0.7-0.7-1.5-1.9-1.5C525.5,7.9,524.4,8.8,524.4,10.5L524.4,10.5z M533.7,14.1h-1.4V3.2h1.4v4.5c0.5-0.8,1.4-1.1,2.2-1.1
		c1.7,0,2.6,1.2,2.6,2.9v4.6h-1.4V9.7c0-1-0.4-1.8-1.7-1.8c-1.1,0-1.6,0.8-1.7,1.9L533.7,14.1L533.7,14.1z"/>
	<g>
		<path class="st0" d="M328.4,14.1V6.9h1.3v1c0.5-0.8,1.4-1.2,2.2-1.2c0.9,0,1.8,0.4,2.2,1.4c0.6-1,1.5-1.4,2.4-1.4
			c1.3,0,2.5,0.9,2.5,2.7v4.7h-1.4V9.5c0-0.9-0.5-1.6-1.5-1.6s-1.7,0.8-1.7,1.8v4.4H333V9.5c0-0.9-0.4-1.6-1.5-1.6
			c-1,0-1.7,0.7-1.7,1.8V14h-1.4V14.1z M343.8,9.9l1.9-0.3c0.4-0.1,0.6-0.3,0.6-0.5c0-0.7-0.5-1.3-1.6-1.3c-1,0-1.5,0.6-1.6,1.5
			L341.7,9c0.2-1.4,1.4-2.3,3-2.3c2.2,0,3,1.2,3,2.6v3.6c0,0.6,0.1,1,0.1,1.2h-1.4c0-0.2-0.1-0.5-0.1-1c-0.3,0.5-1,1.2-2.3,1.2
			c-1.5,0-2.4-1-2.4-2.2C341.6,10.8,342.5,10.1,343.8,9.9L343.8,9.9z M346.3,11v-0.3l-2.2,0.3c-0.6,0.1-1,0.4-1,1.1
			c0,0.5,0.4,1,1.2,1C345.3,13.1,346.3,12.6,346.3,11z M351.5,3.1c0.6,0,1,0.4,1,1s-0.4,1-1,1s-1-0.5-1-1S350.9,3.1,351.5,3.1z
			 M350.8,14.1V6.9h1.4v7.2H350.8z M356.7,14.1h-1.4V6.9h1.4v1c0.5-0.9,1.4-1.2,2.2-1.2c1.7,0,2.6,1.2,2.6,2.9v4.6h-1.4V9.7
			c0-1-0.4-1.8-1.7-1.8c-1.1,0-1.7,0.9-1.7,2V14.1z"/>
	</g>
</g>
<path class="st1" d="M373.1,525.9v-8.3l-3.6,8.3h-1.3l-3.6-8.3v8.3H363v-10.6h2l3.7,8.7l3.8-8.7h2v10.6H373.1z M384.1,523.9
	c-0.4,1.3-1.6,2.3-3.2,2.3c-1.9,0-3.6-1.4-3.6-3.9c0-2.3,1.6-3.8,3.4-3.8c2.2,0,3.5,1.5,3.5,3.8v0.4h-5.4c0,1.3,1,2.2,2.2,2.2
	s1.8-0.6,2-1.5L384.1,523.9z M382.7,521.6c0-1-0.7-1.8-2-1.8c-1.2,0-1.9,0.9-2,1.8H382.7z M390.7,520.2h-0.6c-1.2,0-2,0.6-2,2.2v3.6
	h-1.4v-7.2h1.4v1.3c0.5-1.1,1.4-1.4,2.2-1.4h0.5v1.5L390.7,520.2z M393.7,526c0.1,1,0.9,1.8,2,1.8c1.5,0,2.2-0.8,2.2-2.3v-1
	c-0.3,0.7-1.1,1.2-2.2,1.2c-1.9,0-3.3-1.5-3.3-3.5c0-1.9,1.3-3.5,3.3-3.5c1.1,0,1.9,0.4,2.2,1.1v-1h1.4v6.7c0,1.8-0.9,3.6-3.6,3.6
	c-1.8,0-3.1-1.1-3.3-2.7L393.7,526L393.7,526z M398,522.1c0-1.4-0.8-2.3-2.1-2.3c-1.2,0-2.1,0.9-2.1,2.3s0.8,2.3,2.1,2.3
	C397.1,524.4,398,523.5,398,522.1z M408.6,523.9c-0.4,1.3-1.6,2.3-3.2,2.3c-1.9,0-3.6-1.4-3.6-3.9c0-2.3,1.6-3.8,3.4-3.8
	c2.2,0,3.5,1.5,3.5,3.8v0.4h-5.4c0,1.3,1,2.2,2.2,2.2s1.8-0.6,2-1.5L408.6,523.9z M407.2,521.6c0-1-0.7-1.8-2-1.8
	c-1.2,0-1.9,0.9-2,1.8H407.2z M415.2,520.6c0-3.6,2.6-5.5,5.3-5.5c2.4,0,4.1,1.3,4.7,3.4l-1.4,0.5c-0.4-1.6-1.6-2.5-3.3-2.5
	c-1.9,0-3.8,1.4-3.8,4.2s1.8,4.2,3.8,4.2c1.8,0,3-1.1,3.4-2.5l1.3,0.5c-0.6,2-2.2,3.4-4.7,3.4C417.7,526.2,415.2,524.2,415.2,520.6
	L415.2,520.6z M434.2,522.3c0,2.2-1.5,3.8-3.7,3.8s-3.7-1.6-3.7-3.8s1.5-3.8,3.7-3.8S434.2,520.1,434.2,522.3z M432.7,522.3
	c0-1.7-1.1-2.6-2.2-2.6s-2.2,0.9-2.2,2.6c0,1.7,1.1,2.6,2.2,2.6S432.7,524,432.7,522.3z M436.7,525.9v-7.2h1.3v1
	c0.5-0.8,1.4-1.2,2.2-1.2c0.9,0,1.8,0.4,2.2,1.4c0.6-1,1.5-1.4,2.4-1.4c1.3,0,2.5,0.9,2.5,2.7v4.7h-1.4v-4.5c0-0.9-0.5-1.6-1.5-1.6
	s-1.7,0.8-1.7,1.8v4.4h-1.4v-4.5c0-0.9-0.4-1.6-1.5-1.6c-1,0-1.7,0.8-1.7,1.8v4.3h-1.4V525.9z M450.3,525.9v-7.2h1.3v1
	c0.5-0.8,1.4-1.2,2.2-1.2c0.9,0,1.8,0.4,2.2,1.4c0.6-1,1.5-1.4,2.4-1.4c1.3,0,2.5,0.9,2.5,2.7v4.7h-1.4v-4.5c0-0.9-0.5-1.6-1.5-1.6
	s-1.7,0.8-1.7,1.8v4.4h-1.4v-4.5c0-0.9-0.4-1.6-1.5-1.6c-1,0-1.7,0.8-1.7,1.8v4.3h-1.4V525.9z M464.6,515c0.6,0,1,0.4,1,1
	s-0.4,1-1,1s-1-0.5-1-1C463.6,515.4,464.1,515,464.6,515z M463.9,525.9v-7.2h1.4v7.2H463.9z M470.4,518.7h1.6v1.3h-1.6v3.8
	c0,0.7,0.3,1,1,1c0.2,0,0.4,0,0.6-0.1v1.2c-0.1,0-0.5,0.1-1,0.1c-1.2,0-2-0.8-2-2.1v-4h-1.4v-1.3h0.4c0.8,0,1.1-0.5,1.1-1.1v-1.2
	h1.3V518.7L470.4,518.7z"/>
<path class="st2" d="M331.1,520.4h13 M333,515.9l9.2,9.1 M342.2,515.9L333,525 M337.6,513.9v13"/>
<path class="st3" d="M293.9,268.5c0,22.6-18.4,41-41,41 M293.9,268.5c0-22.6,18.4-41,41-41h311.2"/>
<circle class="st4" cx="378.3" cy="227.5" r="21"/>
<circle class="st4" cx="474.5" cy="227.5" r="21"/>
<circle class="st4" cx="570.8" cy="227.5" r="21"/>
<circle class="st4" cx="667.1" cy="227.5" r="21"/>
<path class="st3" d="M82.9,309.5h170"/>
<circle class="st5" cx="103.9" cy="309.5" r="21"/>
<circle class="st5" cx="199.9" cy="309.5" r="21"/>
<path class="st3" d="M236.2,309.5h216.1"/>
<circle class="st6" cx="377.3" cy="309.5" r="21"/>
<circle class="st7" cx="473.3" cy="309.5" r="21"/>
<path class="st8" d="M617.1,86.5h100v50h-100V86.5z"/>
<path class="st1" d="M640.3,117.5v-10.6h6.5v1.4h-5v3.4h4.5v1.4h-4.5v4.5h-1.5V117.5z M654.9,115.4c-0.4,1.3-1.6,2.3-3.2,2.3
	c-1.9,0-3.6-1.4-3.6-3.9c0-2.3,1.6-3.8,3.4-3.8c2.2,0,3.5,1.5,3.5,3.8v0.4h-5.4c0,1.3,1,2.2,2.2,2.2s1.8-0.6,2-1.5L654.9,115.4z
	 M653.5,113.1c0-1-0.7-1.8-2-1.8c-1.2,0-1.9,0.9-2,1.8H653.5z M659.3,113.4l1.9-0.3c0.4-0.1,0.6-0.3,0.6-0.5c0-0.7-0.5-1.3-1.6-1.3
	c-1,0-1.5,0.6-1.6,1.5l-1.4-0.3c0.2-1.4,1.4-2.3,3-2.3c2.2,0,3,1.2,3,2.6v3.6c0,0.6,0.1,1,0.1,1.2h-1.4c0-0.2-0.1-0.5-0.1-1
	c-0.3,0.5-1,1.2-2.3,1.2c-1.5,0-2.4-1-2.4-2.2C657.1,114.3,658,113.5,659.3,113.4L659.3,113.4z M661.8,114.4v-0.3l-2.2,0.3
	c-0.6,0.1-1.1,0.4-1.1,1.1c0,0.5,0.4,1,1.2,1C660.8,116.5,661.8,116,661.8,114.4z M668,110.3h1.6v1.3H668v3.8c0,0.7,0.3,1,1,1
	c0.2,0,0.4,0,0.6-0.1v1.2c-0.1,0-0.5,0.1-1,0.1c-1.2,0-2-0.8-2-2.1v-4h-1.4v-1.3h0.4c0.8,0,1.1-0.5,1.1-1.1V108h1.3L668,110.3
	L668,110.3z M674.8,117.7c-1.7,0-2.7-1.3-2.7-2.9v-4.5h1.4v4.3c0,1,0.4,1.9,1.6,1.9c1.1,0,1.7-0.8,1.7-1.8v-4.4h1.4v5.9
	c0,0.6,0,1.1,0.1,1.3H677c0-0.2-0.1-0.6-0.1-0.9C676.5,117.4,675.6,117.7,674.8,117.7L674.8,117.7z M685.4,111.7h-0.6
	c-1.2,0-2,0.6-2,2.2v3.6h-1.4v-7.2h1.4v1.3c0.5-1.1,1.4-1.4,2.2-1.4h0.5v1.5H685.4z M693.9,115.4c-0.4,1.3-1.6,2.3-3.2,2.3
	c-1.9,0-3.6-1.4-3.6-3.9c0-2.3,1.6-3.8,3.4-3.8c2.2,0,3.5,1.5,3.5,3.8v0.4h-5.4c0,1.3,1,2.2,2.2,2.2s1.8-0.6,2-1.5L693.9,115.4z
	 M692.5,113.1c0-1-0.7-1.8-2-1.8c-1.2,0-1.9,0.9-2,1.8H692.5z"/>
<path class="st9" d="M667.1,182.3v-23.5 M678,173.6l-10.9,10.9l-10.9-10.9"/>
<path class="st7" d="M423.3,401.4h100v50h-100V401.4z"/>
<path class="st9" d="M473.3,354.9v23.5 M462.4,363.6l10.9-10.9l10.9,10.9 M624.3,259.1h15.4v15.3 M517.1,309.5
	c46.3,0,88.4-18.1,119.6-47.7"/>
<path class="st2" d="M660.6,227.5h13 M662.5,222.9l9.2,9.2 M671.7,222.9l-9.2,9.2 M667.1,221v13"/>
<g>
	<path d="M458.1,432.5v-10h2l2.4,7.1c0.2,0.7,0.4,1.2,0.5,1.5c0.1-0.4,0.3-0.9,0.5-1.6l2.4-7h1.8v10h-1.3v-8.4l-2.9,8.4h-1.2
		l-2.9-8.5v8.5H458.1z"/>
	<path d="M475.1,431.6c-0.5,0.4-0.9,0.7-1.3,0.8c-0.4,0.2-0.9,0.2-1.4,0.2c-0.8,0-1.4-0.2-1.8-0.6s-0.6-0.9-0.6-1.5
		c0-0.4,0.1-0.7,0.2-1c0.2-0.3,0.4-0.5,0.6-0.7c0.3-0.2,0.6-0.3,0.9-0.4c0.2-0.1,0.6-0.1,1.1-0.2c1-0.1,1.7-0.3,2.2-0.4
		c0-0.2,0-0.3,0-0.3c0-0.5-0.1-0.9-0.3-1.1c-0.3-0.3-0.8-0.4-1.4-0.4s-1,0.1-1.3,0.3c-0.3,0.2-0.5,0.6-0.6,1.1l-1.2-0.2
		c0.1-0.5,0.3-0.9,0.5-1.2c0.3-0.3,0.6-0.6,1.1-0.7c0.5-0.2,1-0.3,1.6-0.3s1.1,0.1,1.5,0.2s0.7,0.3,0.9,0.6c0.2,0.2,0.3,0.5,0.4,0.8
		c0,0.2,0.1,0.6,0.1,1.1v1.6c0,1.1,0,1.9,0.1,2.2c0.1,0.3,0.2,0.6,0.3,0.9h-1.3C475.2,432.3,475.2,432,475.1,431.6z M475,428.9
		c-0.4,0.2-1.1,0.3-2,0.5c-0.5,0.1-0.9,0.2-1.1,0.2s-0.4,0.2-0.5,0.4c-0.1,0.2-0.2,0.4-0.2,0.6c0,0.3,0.1,0.6,0.4,0.8
		c0.2,0.2,0.6,0.3,1.1,0.3s0.9-0.1,1.3-0.3c0.4-0.2,0.6-0.5,0.8-0.9c0.1-0.3,0.2-0.7,0.2-1.2L475,428.9L475,428.9z"/>
	<path d="M478.9,423.9v-1.4h1.2v1.4H478.9z M478.9,432.5v-7.3h1.2v7.3H478.9z"/>
	<path d="M482.7,432.5v-7.3h1.1v1c0.5-0.8,1.3-1.2,2.3-1.2c0.4,0,0.8,0.1,1.2,0.2c0.4,0.2,0.6,0.4,0.8,0.6s0.3,0.6,0.4,0.9
		c0,0.2,0.1,0.6,0.1,1.2v4.5h-1.2V428c0-0.5,0-0.9-0.1-1.1s-0.3-0.4-0.5-0.6c-0.2-0.1-0.5-0.2-0.9-0.2c-0.5,0-1,0.2-1.4,0.5
		s-0.6,1-0.6,1.9v4H482.7z"/>
</g>
</svg>
